<svg width="17" height="17" viewBox="0 0 17 17" fill="none" xmlns="http://www.w3.org/2000/svg">
<path d="M0.258789 16.1816H3.61841V5.37695H0.258789V16.1816Z" fill="#000000"/>
<path d="M1.94664 3.89502C3.01989 3.89502 3.89275 3.02162 3.89275 1.94675C3.89275 0.872413 3.01989 9.1264e-05 1.94664 9.1264e-05C0.870156 9.1264e-05 0 0.872413 0 1.94675C0 3.02162 0.870156 3.89502 1.94664 3.89502Z" fill="#000000"/>
<path d="M16.2041 10.2454C16.2041 7.33572 15.5759 5.09847 12.178 5.09847C10.5446 5.09847 9.44812 5.99402 8.99981 6.84312H8.9539V5.36746H5.73254V16.1724H9.09002V10.8266C9.09002 9.41741 9.3563 8.05194 11.1042 8.05194C12.8245 8.05194 12.8493 9.66425 12.8493 10.9174V16.1724H16.2041V10.2454Z" fill="#000000"/>
</svg>
