<svg width="128" height="154" viewBox="0 0 128 154" fill="none" xmlns="http://www.w3.org/2000/svg">
<path d="M127.08 109.43C127.08 119.34 127.08 129.85 124.85 139.43C124.136 142.677 122.431 145.622 119.972 147.859C117.513 150.097 114.42 151.515 111.12 151.92C95.36 153.68 79.41 153.69 63.53 153.68C47.65 153.67 31.7 153.68 15.94 151.92C12.6396 151.517 9.54594 150.099 7.08642 147.861C4.6269 145.624 2.92294 142.678 2.21 139.43C-9.53674e-07 129.81 0 119.3 0 109.43C0 99.5602 1.66893e-06 89.0202 2.24 79.4302C2.94428 76.1774 4.64534 73.2253 7.1063 70.9848C9.56727 68.7443 12.6656 67.327 15.97 66.9302C31.73 65.1602 47.68 65.1602 63.56 65.1602C79.44 65.1602 95.39 65.1602 111.15 66.9302C114.451 67.3309 117.545 68.7499 120.002 70.9901C122.459 73.2303 124.157 76.1803 124.86 79.4302C127.07 89.0602 127.06 99.5602 127.06 109.43" fill="black"/>
<path d="M117.61 123.43V122.31H109.77C109.808 124.045 109.755 125.781 109.61 127.51C109.17 129.56 108.06 130.59 106.18 130.59C103.55 130.59 102.26 128.59 102.26 124.71V117.2H117.62V108.43C117.62 103.9 116.85 100.58 115.24 98.4301C114.205 97.0153 112.836 95.878 111.255 95.1191C109.675 94.3603 107.932 94.0034 106.18 94.0801C104.408 94.002 102.644 94.3575 101.041 95.1155C99.4379 95.8735 98.0439 97.0113 96.98 98.4301C95.34 100.57 94.61 103.89 94.61 108.43V123.23C94.61 127.73 95.44 131.08 97.07 133.23C98.1506 134.655 99.5623 135.795 101.183 136.551C102.803 137.307 104.584 137.657 106.37 137.57C108.181 137.66 109.986 137.286 111.611 136.482C113.237 135.679 114.631 134.473 115.66 132.98C116.596 131.601 117.207 130.029 117.45 128.38C117.52 127.61 117.62 125.9 117.62 123.38M109.94 110.75H102.27V106.83C102.27 102.91 103.553 100.947 106.12 100.94C108.66 100.94 109.94 102.94 109.94 106.83V110.75ZM88.62 124.23V107.35C88.7347 104.489 88.4759 101.625 87.85 98.8301C86.85 95.6601 84.77 94.0501 81.71 94.0501C78.89 94.0501 76.26 95.6001 73.78 98.6501V80.0601H66.1V136.95H73.78V132.85C76.34 136.02 78.98 137.54 81.71 137.54C84.77 137.54 86.83 135.93 87.85 132.78C88.4648 129.977 88.7235 127.108 88.62 124.24M80.94 124.84C80.94 128.67 79.81 130.55 77.6 130.55C76.8683 130.509 76.1523 130.321 75.4945 129.998C74.8366 129.675 74.2502 129.224 73.77 128.67V102.83C74.2526 102.28 74.8397 101.832 75.4972 101.51C76.1547 101.189 76.8695 101.002 77.6 100.96C79.81 100.96 80.94 102.96 80.94 106.74V124.84ZM51.76 136.95V132.33C48.76 135.83 45.76 137.54 42.99 137.54C40.51 137.54 38.8 136.54 38.04 134.39C37.5028 132.335 37.2736 130.212 37.36 128.09V94.5601H45.04V125.77C45.0007 126.771 45.0241 127.772 45.11 128.77C45.3 129.96 45.88 130.56 46.91 130.56C48.45 130.56 50.07 129.37 51.77 126.97V94.5701H59.46V136.96L51.76 136.95ZM36.24 88.0801V80.0801H9.45996V88.0801H18.46V136.95H27V88.0801H36.24Z" fill="white"/>
<path d="M101.94 57.43V14.65H94.18V47.43C92.45 49.86 90.83 51.06 89.27 51.06C88.27 51.06 87.62 50.44 87.45 49.24C87.332 48.2446 87.2985 47.241 87.35 46.24V14.65H79.61V48.51C79.5208 50.6559 79.7534 52.803 80.3 54.88C81.07 57.05 82.79 58.07 85.3 58.07C88.13 58.07 91.07 56.35 94.17 52.8V57.43H101.94ZM65.47 45.07C65.47 49.07 64.27 51.02 61.77 51.02C59.27 51.02 58.06 49.02 58.06 45.07V27.07C58.06 23.07 59.26 21.13 61.77 21.13C64.28 21.13 65.47 23.13 65.47 27.07V45.07ZM73.24 43.61V28.61C73.24 24.03 72.45 20.69 70.83 18.52C69.7529 17.1513 68.3792 16.0449 66.8124 15.2842C65.2457 14.5234 63.5267 14.1282 61.785 14.1282C60.0433 14.1282 58.3243 14.5234 56.7576 15.2842C55.1908 16.0449 53.8171 17.1513 52.74 18.52C51.09 20.69 50.31 24.03 50.31 28.61V43.61C50.31 48.16 51.09 51.54 52.74 53.69C53.8182 55.057 55.1923 56.1618 56.7589 56.9214C58.3255 57.6811 60.0439 58.0757 61.785 58.0757C63.5261 58.0757 65.2445 57.6811 66.8111 56.9214C68.3777 56.1618 69.7518 55.057 70.83 53.69C72.46 51.54 73.24 48.17 73.24 43.61ZM50.24 0H41.54L35.66 22.57L29.55 0H20.49C22.3 5.32 24.2 10.68 26.01 16C28.1689 21.9386 29.9262 28.0157 31.27 34.19V57.43H39.86V34.2L50.24 0Z" fill="black"/>
</svg>
